<mxfile host="app.diagrams.net" agent="Mozilla/5.0 (Windows NT 10.0; Win64; x64) AppleWebKit/537.36 (KHTML, like Gecko) Chrome/131.0.0.0 Safari/537.36" version="25.0.3">
  <diagram name="Page-1" id="CWhURNsdnc9tX_yfzeN_">
    <mxGraphModel dx="379" dy="1373" grid="1" gridSize="10" guides="1" tooltips="1" connect="1" arrows="1" fold="1" page="1" pageScale="1" pageWidth="827" pageHeight="1169" math="0" shadow="0">
      <root>
        <mxCell id="0" />
        <mxCell id="1" parent="0" />
        <mxCell id="9xch-vxLECyQSL4lX-pL-2" value="Player" style="rounded=0;whiteSpace=wrap;html=1;" parent="1" vertex="1">
          <mxGeometry x="80" y="120" width="80" height="40" as="geometry" />
        </mxCell>
        <mxCell id="9xch-vxLECyQSL4lX-pL-3" value="1 Start Game" style="ellipse;whiteSpace=wrap;html=1;" parent="1" vertex="1">
          <mxGeometry x="310" y="110" width="100" height="60" as="geometry" />
        </mxCell>
        <mxCell id="9xch-vxLECyQSL4lX-pL-4" value="2 System Settings" style="ellipse;whiteSpace=wrap;html=1;" parent="1" vertex="1">
          <mxGeometry x="70" y="270" width="100" height="60" as="geometry" />
        </mxCell>
        <mxCell id="9xch-vxLECyQSL4lX-pL-5" value="3 Exit Game" style="ellipse;whiteSpace=wrap;html=1;" parent="1" vertex="1">
          <mxGeometry x="70" y="-50" width="100" height="60" as="geometry" />
        </mxCell>
        <mxCell id="9xch-vxLECyQSL4lX-pL-6" value="8 NPC Interaction" style="ellipse;whiteSpace=wrap;html=1;" parent="1" vertex="1">
          <mxGeometry x="790" y="430" width="100" height="60" as="geometry" />
        </mxCell>
        <mxCell id="9xch-vxLECyQSL4lX-pL-7" value="7 Environment Interaction" style="ellipse;whiteSpace=wrap;html=1;" parent="1" vertex="1">
          <mxGeometry x="1270" y="-50" width="100" height="60" as="geometry" />
        </mxCell>
        <mxCell id="9xch-vxLECyQSL4lX-pL-8" value="5 Inventory Management" style="ellipse;whiteSpace=wrap;html=1;" parent="1" vertex="1">
          <mxGeometry x="790" y="-50" width="100" height="60" as="geometry" />
        </mxCell>
        <mxCell id="9xch-vxLECyQSL4lX-pL-9" value="6 Skill Management" style="ellipse;whiteSpace=wrap;html=1;" parent="1" vertex="1">
          <mxGeometry x="1030" y="430" width="100" height="60" as="geometry" />
        </mxCell>
        <mxCell id="9xch-vxLECyQSL4lX-pL-10" value="9 Purchase Item" style="ellipse;whiteSpace=wrap;html=1;" parent="1" vertex="1">
          <mxGeometry x="790" y="270" width="100" height="60" as="geometry" />
        </mxCell>
        <mxCell id="9xch-vxLECyQSL4lX-pL-11" value="10 Player Move" style="ellipse;whiteSpace=wrap;html=1;" parent="1" vertex="1">
          <mxGeometry x="309" y="750" width="100" height="60" as="geometry" />
        </mxCell>
        <mxCell id="9xch-vxLECyQSL4lX-pL-12" value="11 Enemy Move" style="ellipse;whiteSpace=wrap;html=1;" parent="1" vertex="1">
          <mxGeometry x="67.5" y="590" width="100" height="60" as="geometry" />
        </mxCell>
        <mxCell id="9xch-vxLECyQSL4lX-pL-13" value="4 Party Data" style="ellipse;whiteSpace=wrap;html=1;" parent="1" vertex="1">
          <mxGeometry x="550" y="110" width="100" height="60" as="geometry" />
        </mxCell>
        <mxCell id="9xch-vxLECyQSL4lX-pL-14" value="" style="endArrow=classic;html=1;rounded=0;entryX=0.12;entryY=0.17;entryDx=0;entryDy=0;entryPerimeter=0;" parent="1" target="9xch-vxLECyQSL4lX-pL-3" edge="1">
          <mxGeometry width="50" height="50" relative="1" as="geometry">
            <mxPoint x="160" y="119.99999999999999" as="sourcePoint" />
            <mxPoint x="310" y="119.99999999999999" as="targetPoint" />
          </mxGeometry>
        </mxCell>
        <mxCell id="9xch-vxLECyQSL4lX-pL-15" value="" style="endArrow=classic;html=1;rounded=0;entryX=0.5;entryY=1;entryDx=0;entryDy=0;exitX=0.5;exitY=0;exitDx=0;exitDy=0;" parent="1" source="9xch-vxLECyQSL4lX-pL-2" target="9xch-vxLECyQSL4lX-pL-5" edge="1">
          <mxGeometry width="50" height="50" relative="1" as="geometry">
            <mxPoint x="70" y="90" as="sourcePoint" />
            <mxPoint x="220" y="90" as="targetPoint" />
          </mxGeometry>
        </mxCell>
        <mxCell id="9xch-vxLECyQSL4lX-pL-16" value="" style="endArrow=classic;html=1;rounded=0;entryX=0.5;entryY=0;entryDx=0;entryDy=0;exitX=0.5;exitY=1;exitDx=0;exitDy=0;" parent="1" source="9xch-vxLECyQSL4lX-pL-2" target="9xch-vxLECyQSL4lX-pL-4" edge="1">
          <mxGeometry width="50" height="50" relative="1" as="geometry">
            <mxPoint x="130" y="130" as="sourcePoint" />
            <mxPoint x="130" y="20" as="targetPoint" />
          </mxGeometry>
        </mxCell>
        <mxCell id="9xch-vxLECyQSL4lX-pL-17" value="" style="endArrow=classic;html=1;rounded=0;entryX=1;entryY=0.75;entryDx=0;entryDy=0;exitX=0.126;exitY=0.833;exitDx=0;exitDy=0;exitPerimeter=0;" parent="1" source="9xch-vxLECyQSL4lX-pL-3" edge="1">
          <mxGeometry width="50" height="50" relative="1" as="geometry">
            <mxPoint x="320" y="160" as="sourcePoint" />
            <mxPoint x="158.5" y="160" as="targetPoint" />
          </mxGeometry>
        </mxCell>
        <mxCell id="9xch-vxLECyQSL4lX-pL-18" value="&lt;font style=&quot;font-size: 9px;&quot;&gt;Input Details&lt;/font&gt;" style="text;html=1;align=center;verticalAlign=middle;resizable=0;points=[];autosize=1;strokeColor=none;fillColor=none;" parent="1" vertex="1">
          <mxGeometry x="210" y="100" width="70" height="30" as="geometry" />
        </mxCell>
        <mxCell id="9xch-vxLECyQSL4lX-pL-19" value="&lt;font style=&quot;font-size: 9px;&quot;&gt;World Details&lt;/font&gt;" style="text;html=1;align=center;verticalAlign=middle;resizable=0;points=[];autosize=1;strokeColor=none;fillColor=none;" parent="1" vertex="1">
          <mxGeometry x="205" y="140" width="80" height="30" as="geometry" />
        </mxCell>
        <mxCell id="9xch-vxLECyQSL4lX-pL-20" value="" style="endArrow=classic;html=1;rounded=0;entryX=1;entryY=0;entryDx=0;entryDy=0;" parent="1" edge="1">
          <mxGeometry width="50" height="50" relative="1" as="geometry">
            <mxPoint x="310" y="140" as="sourcePoint" />
            <mxPoint x="160" y="139.76" as="targetPoint" />
          </mxGeometry>
        </mxCell>
        <mxCell id="9xch-vxLECyQSL4lX-pL-22" value="&lt;font style=&quot;font-size: 9px;&quot;&gt;Player Details&lt;/font&gt;" style="text;html=1;align=center;verticalAlign=middle;resizable=0;points=[];autosize=1;strokeColor=none;fillColor=none;" parent="1" vertex="1">
          <mxGeometry x="205" y="120" width="80" height="30" as="geometry" />
        </mxCell>
        <mxCell id="9xch-vxLECyQSL4lX-pL-23" value="&lt;font style=&quot;font-size: 9px;&quot;&gt;Input Details&lt;/font&gt;" style="text;html=1;align=center;verticalAlign=middle;resizable=0;points=[];autosize=1;strokeColor=none;fillColor=none;rotation=-90;" parent="1" vertex="1">
          <mxGeometry x="80" y="60" width="70" height="30" as="geometry" />
        </mxCell>
        <mxCell id="9xch-vxLECyQSL4lX-pL-25" value="" style="endArrow=classic;html=1;rounded=0;entryX=0.75;entryY=0;entryDx=0;entryDy=0;exitX=0.704;exitY=0.961;exitDx=0;exitDy=0;exitPerimeter=0;" parent="1" source="9xch-vxLECyQSL4lX-pL-5" target="9xch-vxLECyQSL4lX-pL-2" edge="1">
          <mxGeometry width="50" height="50" relative="1" as="geometry">
            <mxPoint x="140" y="10" as="sourcePoint" />
            <mxPoint x="180" y="60" as="targetPoint" />
          </mxGeometry>
        </mxCell>
        <mxCell id="9xch-vxLECyQSL4lX-pL-26" value="&lt;font style=&quot;font-size: 9px;&quot;&gt;Exit Details&lt;/font&gt;" style="text;html=1;align=center;verticalAlign=middle;resizable=0;points=[];autosize=1;strokeColor=none;fillColor=none;rotation=-90;" parent="1" vertex="1">
          <mxGeometry x="100" y="60" width="70" height="30" as="geometry" />
        </mxCell>
        <mxCell id="9xch-vxLECyQSL4lX-pL-27" value="&lt;font style=&quot;font-size: 9px;&quot;&gt;Setting Details&lt;/font&gt;" style="text;html=1;align=center;verticalAlign=middle;resizable=0;points=[];autosize=1;strokeColor=none;fillColor=none;rotation=-90;" parent="1" vertex="1">
          <mxGeometry x="315" y="210" width="80" height="30" as="geometry" />
        </mxCell>
        <mxCell id="9xch-vxLECyQSL4lX-pL-28" value="" style="endArrow=classic;html=1;rounded=0;entryX=0.5;entryY=1;entryDx=0;entryDy=0;exitX=0.698;exitY=0.041;exitDx=0;exitDy=0;exitPerimeter=0;" parent="1" source="9xch-vxLECyQSL4lX-pL-4" edge="1">
          <mxGeometry width="50" height="50" relative="1" as="geometry">
            <mxPoint x="140" y="270" as="sourcePoint" />
            <mxPoint x="140" y="160" as="targetPoint" />
          </mxGeometry>
        </mxCell>
        <mxCell id="9xch-vxLECyQSL4lX-pL-29" value="&lt;font style=&quot;font-size: 9px;&quot;&gt;System Details&lt;/font&gt;" style="text;html=1;align=center;verticalAlign=middle;resizable=0;points=[];autosize=1;strokeColor=none;fillColor=none;rotation=-90;" parent="1" vertex="1">
          <mxGeometry x="95" y="200" width="80" height="30" as="geometry" />
        </mxCell>
        <mxCell id="9xch-vxLECyQSL4lX-pL-34" value="" style="group" parent="1" vertex="1" connectable="0">
          <mxGeometry x="314" y="280" width="96" height="40" as="geometry" />
        </mxCell>
        <mxCell id="9xch-vxLECyQSL4lX-pL-30" value="" style="endArrow=none;html=1;rounded=0;movable=1;resizable=1;rotatable=1;deletable=1;editable=1;locked=0;connectable=1;" parent="9xch-vxLECyQSL4lX-pL-34" edge="1">
          <mxGeometry width="50" height="50" relative="1" as="geometry">
            <mxPoint as="sourcePoint" />
            <mxPoint x="96" as="targetPoint" />
          </mxGeometry>
        </mxCell>
        <mxCell id="9xch-vxLECyQSL4lX-pL-31" value="" style="endArrow=none;html=1;rounded=0;movable=1;resizable=1;rotatable=1;deletable=1;editable=1;locked=0;connectable=1;" parent="9xch-vxLECyQSL4lX-pL-34" edge="1">
          <mxGeometry width="50" height="50" relative="1" as="geometry">
            <mxPoint y="40" as="sourcePoint" />
            <mxPoint x="96" y="40" as="targetPoint" />
          </mxGeometry>
        </mxCell>
        <mxCell id="9xch-vxLECyQSL4lX-pL-32" value="Setting" style="text;html=1;align=center;verticalAlign=middle;resizable=1;points=[];autosize=1;strokeColor=none;fillColor=none;movable=1;rotatable=1;deletable=1;editable=1;locked=0;connectable=1;" parent="9xch-vxLECyQSL4lX-pL-34" vertex="1">
          <mxGeometry x="19.2" y="5" width="57.599999999999994" height="30" as="geometry" />
        </mxCell>
        <mxCell id="9xch-vxLECyQSL4lX-pL-35" value="" style="group" parent="1" vertex="1" connectable="0">
          <mxGeometry x="550" y="440" width="120" height="40" as="geometry" />
        </mxCell>
        <mxCell id="9xch-vxLECyQSL4lX-pL-36" value="" style="endArrow=none;html=1;rounded=0;movable=1;resizable=1;rotatable=1;deletable=1;editable=1;locked=0;connectable=1;" parent="9xch-vxLECyQSL4lX-pL-35" edge="1">
          <mxGeometry width="50" height="50" relative="1" as="geometry">
            <mxPoint as="sourcePoint" />
            <mxPoint x="100" as="targetPoint" />
          </mxGeometry>
        </mxCell>
        <mxCell id="9xch-vxLECyQSL4lX-pL-37" value="" style="endArrow=none;html=1;rounded=0;movable=1;resizable=1;rotatable=1;deletable=1;editable=1;locked=0;connectable=1;" parent="9xch-vxLECyQSL4lX-pL-35" edge="1">
          <mxGeometry width="50" height="50" relative="1" as="geometry">
            <mxPoint y="40" as="sourcePoint" />
            <mxPoint x="100" y="40" as="targetPoint" />
          </mxGeometry>
        </mxCell>
        <mxCell id="9xch-vxLECyQSL4lX-pL-38" value="NPC" style="text;html=1;align=center;verticalAlign=middle;resizable=1;points=[];autosize=1;strokeColor=none;fillColor=none;movable=1;rotatable=1;deletable=1;editable=1;locked=0;connectable=1;" parent="9xch-vxLECyQSL4lX-pL-35" vertex="1">
          <mxGeometry x="25" y="5" width="50" height="30" as="geometry" />
        </mxCell>
        <mxCell id="9xch-vxLECyQSL4lX-pL-39" value="" style="group" parent="1" vertex="1" connectable="0">
          <mxGeometry x="310" y="-40" width="100" height="40" as="geometry" />
        </mxCell>
        <mxCell id="9xch-vxLECyQSL4lX-pL-40" value="" style="endArrow=none;html=1;rounded=0;movable=1;resizable=1;rotatable=1;deletable=1;editable=1;locked=0;connectable=1;" parent="9xch-vxLECyQSL4lX-pL-39" edge="1">
          <mxGeometry width="50" height="50" relative="1" as="geometry">
            <mxPoint as="sourcePoint" />
            <mxPoint x="100" as="targetPoint" />
          </mxGeometry>
        </mxCell>
        <mxCell id="9xch-vxLECyQSL4lX-pL-41" value="" style="endArrow=none;html=1;rounded=0;movable=1;resizable=1;rotatable=1;deletable=1;editable=1;locked=0;connectable=1;" parent="9xch-vxLECyQSL4lX-pL-39" edge="1">
          <mxGeometry width="50" height="50" relative="1" as="geometry">
            <mxPoint y="40" as="sourcePoint" />
            <mxPoint x="100" y="40" as="targetPoint" />
          </mxGeometry>
        </mxCell>
        <mxCell id="9xch-vxLECyQSL4lX-pL-42" value="Player" style="text;html=1;align=center;verticalAlign=middle;resizable=1;points=[];autosize=1;strokeColor=none;fillColor=none;movable=1;rotatable=1;deletable=1;editable=1;locked=0;connectable=1;" parent="9xch-vxLECyQSL4lX-pL-39" vertex="1">
          <mxGeometry x="20" y="5" width="60" height="30" as="geometry" />
        </mxCell>
        <mxCell id="9xch-vxLECyQSL4lX-pL-43" value="" style="group" parent="1" vertex="1" connectable="0">
          <mxGeometry x="1030" y="120" width="100" height="40" as="geometry" />
        </mxCell>
        <mxCell id="9xch-vxLECyQSL4lX-pL-44" value="" style="endArrow=none;html=1;rounded=0;movable=1;resizable=1;rotatable=1;deletable=1;editable=1;locked=0;connectable=1;" parent="9xch-vxLECyQSL4lX-pL-43" edge="1">
          <mxGeometry width="50" height="50" relative="1" as="geometry">
            <mxPoint as="sourcePoint" />
            <mxPoint x="100" as="targetPoint" />
          </mxGeometry>
        </mxCell>
        <mxCell id="9xch-vxLECyQSL4lX-pL-45" value="" style="endArrow=none;html=1;rounded=0;movable=1;resizable=1;rotatable=1;deletable=1;editable=1;locked=0;connectable=1;" parent="9xch-vxLECyQSL4lX-pL-43" edge="1">
          <mxGeometry width="50" height="50" relative="1" as="geometry">
            <mxPoint y="40" as="sourcePoint" />
            <mxPoint x="100" y="40" as="targetPoint" />
          </mxGeometry>
        </mxCell>
        <mxCell id="9xch-vxLECyQSL4lX-pL-46" value="Inventory" style="text;html=1;align=center;verticalAlign=middle;resizable=1;points=[];autosize=1;strokeColor=none;fillColor=none;movable=1;rotatable=1;deletable=1;editable=1;locked=0;connectable=1;" parent="9xch-vxLECyQSL4lX-pL-43" vertex="1">
          <mxGeometry x="15" y="5" width="70" height="30" as="geometry" />
        </mxCell>
        <mxCell id="9xch-vxLECyQSL4lX-pL-47" value="" style="endArrow=classic;html=1;rounded=0;entryX=0.5;entryY=0;entryDx=0;entryDy=0;" parent="1" target="9xch-vxLECyQSL4lX-pL-3" edge="1">
          <mxGeometry width="50" height="50" relative="1" as="geometry">
            <mxPoint x="360" as="sourcePoint" />
            <mxPoint x="472" y="74.66" as="targetPoint" />
          </mxGeometry>
        </mxCell>
        <mxCell id="9xch-vxLECyQSL4lX-pL-54" value="" style="endArrow=classic;html=1;rounded=0;entryX=0.5;entryY=1;entryDx=0;entryDy=0;" parent="1" target="9xch-vxLECyQSL4lX-pL-3" edge="1">
          <mxGeometry width="50" height="50" relative="1" as="geometry">
            <mxPoint x="360" y="280" as="sourcePoint" />
            <mxPoint x="409.31" y="260" as="targetPoint" />
          </mxGeometry>
        </mxCell>
        <mxCell id="9xch-vxLECyQSL4lX-pL-57" value="&lt;font style=&quot;font-size: 9px;&quot;&gt;Player Details&lt;/font&gt;" style="text;html=1;align=center;verticalAlign=middle;resizable=0;points=[];autosize=1;strokeColor=none;fillColor=none;rotation=-90;" parent="1" vertex="1">
          <mxGeometry x="315" y="40" width="80" height="30" as="geometry" />
        </mxCell>
        <mxCell id="9xch-vxLECyQSL4lX-pL-58" value="&lt;font style=&quot;font-size: 9px;&quot;&gt;Input Details&lt;/font&gt;" style="text;html=1;align=center;verticalAlign=middle;resizable=0;points=[];autosize=1;strokeColor=none;fillColor=none;rotation=-90;" parent="1" vertex="1">
          <mxGeometry x="80" y="200" width="70" height="30" as="geometry" />
        </mxCell>
        <mxCell id="9xch-vxLECyQSL4lX-pL-59" value="" style="endArrow=classic;html=1;rounded=0;exitX=0.967;exitY=0.33;exitDx=0;exitDy=0;exitPerimeter=0;" parent="1" source="9xch-vxLECyQSL4lX-pL-4" edge="1">
          <mxGeometry width="50" height="50" relative="1" as="geometry">
            <mxPoint x="170" y="290" as="sourcePoint" />
            <mxPoint x="320" y="290" as="targetPoint" />
          </mxGeometry>
        </mxCell>
        <mxCell id="9xch-vxLECyQSL4lX-pL-60" value="" style="endArrow=classic;html=1;rounded=0;entryX=0.972;entryY=0.669;entryDx=0;entryDy=0;entryPerimeter=0;" parent="1" target="9xch-vxLECyQSL4lX-pL-4" edge="1">
          <mxGeometry width="50" height="50" relative="1" as="geometry">
            <mxPoint x="320" y="310" as="sourcePoint" />
            <mxPoint x="170" y="310" as="targetPoint" />
          </mxGeometry>
        </mxCell>
        <mxCell id="9xch-vxLECyQSL4lX-pL-61" value="&lt;font size=&quot;1&quot;&gt;Modify Settings&lt;/font&gt;" style="text;html=1;align=center;verticalAlign=middle;resizable=0;points=[];autosize=1;strokeColor=none;fillColor=none;" parent="1" vertex="1">
          <mxGeometry x="195" y="270" width="90" height="30" as="geometry" />
        </mxCell>
        <mxCell id="9xch-vxLECyQSL4lX-pL-62" value="&lt;font size=&quot;1&quot;&gt;Setting Details&lt;/font&gt;" style="text;html=1;align=center;verticalAlign=middle;resizable=0;points=[];autosize=1;strokeColor=none;fillColor=none;" parent="1" vertex="1">
          <mxGeometry x="195" y="290" width="90" height="30" as="geometry" />
        </mxCell>
        <mxCell id="9xch-vxLECyQSL4lX-pL-64" value="" style="endArrow=classic;html=1;rounded=0;entryX=0.5;entryY=0;entryDx=0;entryDy=0;" parent="1" target="9xch-vxLECyQSL4lX-pL-13" edge="1">
          <mxGeometry width="50" height="50" relative="1" as="geometry">
            <mxPoint x="410" y="-20" as="sourcePoint" />
            <mxPoint x="559.66" y="110" as="targetPoint" />
            <Array as="points">
              <mxPoint x="600" y="-20" />
            </Array>
          </mxGeometry>
        </mxCell>
        <mxCell id="9xch-vxLECyQSL4lX-pL-65" value="&lt;font style=&quot;font-size: 9px;&quot;&gt;Player Details&lt;/font&gt;" style="text;html=1;align=center;verticalAlign=middle;resizable=0;points=[];autosize=1;strokeColor=none;fillColor=none;rotation=-90;" parent="1" vertex="1">
          <mxGeometry x="555" y="30" width="80" height="30" as="geometry" />
        </mxCell>
        <mxCell id="9xch-vxLECyQSL4lX-pL-66" value="" style="endArrow=classic;html=1;rounded=0;exitX=0.7;exitY=0.048;exitDx=0;exitDy=0;exitPerimeter=0;" parent="1" source="9xch-vxLECyQSL4lX-pL-3" edge="1">
          <mxGeometry width="50" height="50" relative="1" as="geometry">
            <mxPoint x="380" y="110" as="sourcePoint" />
            <mxPoint x="380" as="targetPoint" />
          </mxGeometry>
        </mxCell>
        <mxCell id="9xch-vxLECyQSL4lX-pL-67" value="&lt;font style=&quot;font-size: 9px;&quot;&gt;User Data&lt;/font&gt;" style="text;html=1;align=center;verticalAlign=middle;resizable=0;points=[];autosize=1;strokeColor=none;fillColor=none;rotation=-90;" parent="1" vertex="1">
          <mxGeometry x="344" y="40" width="60" height="30" as="geometry" />
        </mxCell>
        <mxCell id="9xch-vxLECyQSL4lX-pL-69" value="Player" style="rounded=0;whiteSpace=wrap;html=1;" parent="1" vertex="1">
          <mxGeometry x="800" y="120" width="80" height="40" as="geometry" />
        </mxCell>
        <mxCell id="9xch-vxLECyQSL4lX-pL-70" value="" style="endArrow=classic;html=1;rounded=0;entryX=0;entryY=0.5;entryDx=0;entryDy=0;exitX=1;exitY=0.5;exitDx=0;exitDy=0;" parent="1" source="9xch-vxLECyQSL4lX-pL-13" target="9xch-vxLECyQSL4lX-pL-69" edge="1">
          <mxGeometry width="50" height="50" relative="1" as="geometry">
            <mxPoint x="650" y="134.71" as="sourcePoint" />
            <mxPoint x="760" y="134.71" as="targetPoint" />
          </mxGeometry>
        </mxCell>
        <mxCell id="9xch-vxLECyQSL4lX-pL-71" value="&lt;font size=&quot;1&quot;&gt;Player Detail&lt;/font&gt;" style="text;html=1;align=center;verticalAlign=middle;resizable=0;points=[];autosize=1;strokeColor=none;fillColor=none;" parent="1" vertex="1">
          <mxGeometry x="680" y="120" width="80" height="30" as="geometry" />
        </mxCell>
        <mxCell id="9xch-vxLECyQSL4lX-pL-72" value="" style="group" parent="1" vertex="1" connectable="0">
          <mxGeometry x="550" y="280" width="100" height="40" as="geometry" />
        </mxCell>
        <mxCell id="9xch-vxLECyQSL4lX-pL-73" value="" style="endArrow=none;html=1;rounded=0;movable=1;resizable=1;rotatable=1;deletable=1;editable=1;locked=0;connectable=1;" parent="9xch-vxLECyQSL4lX-pL-72" edge="1">
          <mxGeometry width="50" height="50" relative="1" as="geometry">
            <mxPoint as="sourcePoint" />
            <mxPoint x="100" as="targetPoint" />
          </mxGeometry>
        </mxCell>
        <mxCell id="9xch-vxLECyQSL4lX-pL-74" value="" style="endArrow=none;html=1;rounded=0;movable=1;resizable=1;rotatable=1;deletable=1;editable=1;locked=0;connectable=1;" parent="9xch-vxLECyQSL4lX-pL-72" edge="1">
          <mxGeometry width="50" height="50" relative="1" as="geometry">
            <mxPoint y="40" as="sourcePoint" />
            <mxPoint x="100" y="40" as="targetPoint" />
          </mxGeometry>
        </mxCell>
        <mxCell id="9xch-vxLECyQSL4lX-pL-75" value="Party" style="text;html=1;align=center;verticalAlign=middle;resizable=1;points=[];autosize=1;strokeColor=none;fillColor=none;movable=1;rotatable=1;deletable=1;editable=1;locked=0;connectable=1;" parent="9xch-vxLECyQSL4lX-pL-72" vertex="1">
          <mxGeometry x="25" y="5" width="50" height="30" as="geometry" />
        </mxCell>
        <mxCell id="9xch-vxLECyQSL4lX-pL-76" value="" style="endArrow=classic;html=1;rounded=0;entryX=0.5;entryY=1;entryDx=0;entryDy=0;" parent="1" edge="1">
          <mxGeometry width="50" height="50" relative="1" as="geometry">
            <mxPoint x="599.5699999999999" y="280" as="sourcePoint" />
            <mxPoint x="599.5699999999999" y="170" as="targetPoint" />
          </mxGeometry>
        </mxCell>
        <mxCell id="9xch-vxLECyQSL4lX-pL-77" value="&lt;font style=&quot;font-size: 9px;&quot;&gt;Party Details&lt;/font&gt;" style="text;html=1;align=center;verticalAlign=middle;resizable=0;points=[];autosize=1;strokeColor=none;fillColor=none;rotation=-90;" parent="1" vertex="1">
          <mxGeometry x="560" y="214" width="70" height="30" as="geometry" />
        </mxCell>
        <mxCell id="9xch-vxLECyQSL4lX-pL-81" value="" style="group" parent="1" vertex="1" connectable="0">
          <mxGeometry x="70" y="440" width="95" height="40" as="geometry" />
        </mxCell>
        <mxCell id="9xch-vxLECyQSL4lX-pL-82" value="" style="endArrow=none;html=1;rounded=0;movable=1;resizable=1;rotatable=1;deletable=1;editable=1;locked=0;connectable=1;" parent="9xch-vxLECyQSL4lX-pL-81" edge="1">
          <mxGeometry width="50" height="50" relative="1" as="geometry">
            <mxPoint as="sourcePoint" />
            <mxPoint x="95" as="targetPoint" />
          </mxGeometry>
        </mxCell>
        <mxCell id="9xch-vxLECyQSL4lX-pL-83" value="" style="endArrow=none;html=1;rounded=0;movable=1;resizable=1;rotatable=1;deletable=1;editable=1;locked=0;connectable=1;" parent="9xch-vxLECyQSL4lX-pL-81" edge="1">
          <mxGeometry width="50" height="50" relative="1" as="geometry">
            <mxPoint y="40" as="sourcePoint" />
            <mxPoint x="95" y="40" as="targetPoint" />
          </mxGeometry>
        </mxCell>
        <mxCell id="9xch-vxLECyQSL4lX-pL-84" value="Enemy" style="text;html=1;align=center;verticalAlign=middle;resizable=1;points=[];autosize=1;strokeColor=none;fillColor=none;movable=1;rotatable=1;deletable=1;editable=1;locked=0;connectable=1;" parent="9xch-vxLECyQSL4lX-pL-81" vertex="1">
          <mxGeometry x="19" y="5" width="57" height="30" as="geometry" />
        </mxCell>
        <mxCell id="9xch-vxLECyQSL4lX-pL-85" value="" style="group" parent="1" vertex="1" connectable="0">
          <mxGeometry x="1030" y="280" width="100" height="40" as="geometry" />
        </mxCell>
        <mxCell id="9xch-vxLECyQSL4lX-pL-86" value="" style="endArrow=none;html=1;rounded=0;movable=1;resizable=1;rotatable=1;deletable=1;editable=1;locked=0;connectable=1;" parent="9xch-vxLECyQSL4lX-pL-85" edge="1">
          <mxGeometry width="50" height="50" relative="1" as="geometry">
            <mxPoint as="sourcePoint" />
            <mxPoint x="100" as="targetPoint" />
          </mxGeometry>
        </mxCell>
        <mxCell id="9xch-vxLECyQSL4lX-pL-87" value="" style="endArrow=none;html=1;rounded=0;movable=1;resizable=1;rotatable=1;deletable=1;editable=1;locked=0;connectable=1;" parent="9xch-vxLECyQSL4lX-pL-85" edge="1">
          <mxGeometry width="50" height="50" relative="1" as="geometry">
            <mxPoint y="40" as="sourcePoint" />
            <mxPoint x="100" y="40" as="targetPoint" />
          </mxGeometry>
        </mxCell>
        <mxCell id="9xch-vxLECyQSL4lX-pL-88" value="Items" style="text;html=1;align=center;verticalAlign=middle;resizable=1;points=[];autosize=1;strokeColor=none;fillColor=none;movable=1;rotatable=1;deletable=1;editable=1;locked=0;connectable=1;" parent="9xch-vxLECyQSL4lX-pL-85" vertex="1">
          <mxGeometry x="25" y="5" width="50" height="30" as="geometry" />
        </mxCell>
        <mxCell id="9xch-vxLECyQSL4lX-pL-93" value="" style="group" parent="1" vertex="1" connectable="0">
          <mxGeometry x="1270" y="440" width="100" height="40" as="geometry" />
        </mxCell>
        <mxCell id="9xch-vxLECyQSL4lX-pL-94" value="" style="endArrow=none;html=1;rounded=0;movable=1;resizable=1;rotatable=1;deletable=1;editable=1;locked=0;connectable=1;" parent="9xch-vxLECyQSL4lX-pL-93" edge="1">
          <mxGeometry width="50" height="50" relative="1" as="geometry">
            <mxPoint as="sourcePoint" />
            <mxPoint x="100" as="targetPoint" />
          </mxGeometry>
        </mxCell>
        <mxCell id="9xch-vxLECyQSL4lX-pL-95" value="" style="endArrow=none;html=1;rounded=0;movable=1;resizable=1;rotatable=1;deletable=1;editable=1;locked=0;connectable=1;" parent="9xch-vxLECyQSL4lX-pL-93" edge="1">
          <mxGeometry width="50" height="50" relative="1" as="geometry">
            <mxPoint y="40" as="sourcePoint" />
            <mxPoint x="100" y="40" as="targetPoint" />
          </mxGeometry>
        </mxCell>
        <mxCell id="9xch-vxLECyQSL4lX-pL-96" value="Skill" style="text;html=1;align=center;verticalAlign=middle;resizable=1;points=[];autosize=1;strokeColor=none;fillColor=none;movable=1;rotatable=1;deletable=1;editable=1;locked=0;connectable=1;" parent="9xch-vxLECyQSL4lX-pL-93" vertex="1">
          <mxGeometry x="25" y="5" width="50" height="30" as="geometry" />
        </mxCell>
        <mxCell id="9xch-vxLECyQSL4lX-pL-99" value="Player" style="rounded=0;whiteSpace=wrap;html=1;" parent="1" vertex="1">
          <mxGeometry x="560" y="600" width="80" height="40" as="geometry" />
        </mxCell>
        <mxCell id="9xch-vxLECyQSL4lX-pL-100" value="" style="group" parent="1" vertex="1" connectable="0">
          <mxGeometry x="1270" y="120" width="100" height="40" as="geometry" />
        </mxCell>
        <mxCell id="9xch-vxLECyQSL4lX-pL-101" value="" style="endArrow=none;html=1;rounded=0;movable=1;resizable=1;rotatable=1;deletable=1;editable=1;locked=0;connectable=1;" parent="9xch-vxLECyQSL4lX-pL-100" edge="1">
          <mxGeometry width="50" height="50" relative="1" as="geometry">
            <mxPoint as="sourcePoint" />
            <mxPoint x="100" as="targetPoint" />
          </mxGeometry>
        </mxCell>
        <mxCell id="9xch-vxLECyQSL4lX-pL-102" value="" style="endArrow=none;html=1;rounded=0;movable=1;resizable=1;rotatable=1;deletable=1;editable=1;locked=0;connectable=1;" parent="9xch-vxLECyQSL4lX-pL-100" edge="1">
          <mxGeometry width="50" height="50" relative="1" as="geometry">
            <mxPoint y="40" as="sourcePoint" />
            <mxPoint x="100" y="40" as="targetPoint" />
          </mxGeometry>
        </mxCell>
        <mxCell id="9xch-vxLECyQSL4lX-pL-103" value="Environment" style="text;html=1;align=center;verticalAlign=middle;resizable=1;points=[];autosize=1;strokeColor=none;fillColor=none;movable=1;rotatable=1;deletable=1;editable=1;locked=0;connectable=1;" parent="9xch-vxLECyQSL4lX-pL-100" vertex="1">
          <mxGeometry x="5" y="5" width="90" height="30" as="geometry" />
        </mxCell>
        <mxCell id="9xch-vxLECyQSL4lX-pL-104" value="" style="endArrow=classic;html=1;rounded=0;entryX=1;entryY=0.5;entryDx=0;entryDy=0;" parent="1" target="9xch-vxLECyQSL4lX-pL-10" edge="1">
          <mxGeometry width="50" height="50" relative="1" as="geometry">
            <mxPoint x="1040" y="300" as="sourcePoint" />
            <mxPoint x="1050" y="350" as="targetPoint" />
          </mxGeometry>
        </mxCell>
        <mxCell id="9xch-vxLECyQSL4lX-pL-106" value="&lt;font size=&quot;1&quot;&gt;Item Detail&lt;/font&gt;" style="text;html=1;align=center;verticalAlign=middle;resizable=0;points=[];autosize=1;strokeColor=none;fillColor=none;" parent="1" vertex="1">
          <mxGeometry x="935" y="280" width="70" height="30" as="geometry" />
        </mxCell>
        <mxCell id="9xch-vxLECyQSL4lX-pL-107" value="" style="endArrow=classic;html=1;rounded=0;entryX=1;entryY=0.5;entryDx=0;entryDy=0;" parent="1" edge="1">
          <mxGeometry width="50" height="50" relative="1" as="geometry">
            <mxPoint x="1280" y="459.47" as="sourcePoint" />
            <mxPoint x="1130" y="459.47" as="targetPoint" />
          </mxGeometry>
        </mxCell>
        <mxCell id="9xch-vxLECyQSL4lX-pL-108" value="&lt;font size=&quot;1&quot;&gt;Skill Detail&lt;/font&gt;" style="text;html=1;align=center;verticalAlign=middle;resizable=0;points=[];autosize=1;strokeColor=none;fillColor=none;" parent="1" vertex="1">
          <mxGeometry x="1171" y="440" width="70" height="30" as="geometry" />
        </mxCell>
        <mxCell id="9xch-vxLECyQSL4lX-pL-111" value="" style="endArrow=classic;html=1;rounded=0;entryX=0;entryY=0.5;entryDx=0;entryDy=0;" parent="1" target="9xch-vxLECyQSL4lX-pL-6" edge="1">
          <mxGeometry width="50" height="50" relative="1" as="geometry">
            <mxPoint x="640" y="460" as="sourcePoint" />
            <mxPoint x="645" y="480" as="targetPoint" />
          </mxGeometry>
        </mxCell>
        <mxCell id="9xch-vxLECyQSL4lX-pL-112" value="&lt;font size=&quot;1&quot;&gt;NPC Detail&lt;/font&gt;" style="text;html=1;align=center;verticalAlign=middle;resizable=0;points=[];autosize=1;strokeColor=none;fillColor=none;" parent="1" vertex="1">
          <mxGeometry x="685" y="440" width="70" height="30" as="geometry" />
        </mxCell>
        <mxCell id="9xch-vxLECyQSL4lX-pL-113" value="" style="endArrow=classic;html=1;rounded=0;entryX=0;entryY=1;entryDx=0;entryDy=0;exitX=0.88;exitY=0.825;exitDx=0;exitDy=0;exitPerimeter=0;" parent="1" source="9xch-vxLECyQSL4lX-pL-13" target="9xch-vxLECyQSL4lX-pL-69" edge="1">
          <mxGeometry width="50" height="50" relative="1" as="geometry">
            <mxPoint x="640" y="160" as="sourcePoint" />
            <mxPoint x="796.7" y="159.08" as="targetPoint" />
          </mxGeometry>
        </mxCell>
        <mxCell id="9xch-vxLECyQSL4lX-pL-115" value="&lt;font size=&quot;1&quot;&gt;Party Detail&lt;/font&gt;" style="text;html=1;align=center;verticalAlign=middle;resizable=0;points=[];autosize=1;strokeColor=none;fillColor=none;" parent="1" vertex="1">
          <mxGeometry x="681.7" y="140" width="80" height="30" as="geometry" />
        </mxCell>
        <mxCell id="9xch-vxLECyQSL4lX-pL-117" value="" style="endArrow=classic;html=1;rounded=0;entryX=0.5;entryY=0;entryDx=0;entryDy=0;exitX=0.5;exitY=1;exitDx=0;exitDy=0;" parent="1" source="9xch-vxLECyQSL4lX-pL-69" target="9xch-vxLECyQSL4lX-pL-10" edge="1">
          <mxGeometry width="50" height="50" relative="1" as="geometry">
            <mxPoint x="785" y="120" as="sourcePoint" />
            <mxPoint x="635" y="120" as="targetPoint" />
          </mxGeometry>
        </mxCell>
        <mxCell id="9xch-vxLECyQSL4lX-pL-119" value="" style="endArrow=classic;html=1;rounded=0;exitX=0.3;exitY=0.052;exitDx=0;exitDy=0;exitPerimeter=0;" parent="1" source="9xch-vxLECyQSL4lX-pL-10" edge="1">
          <mxGeometry width="50" height="50" relative="1" as="geometry">
            <mxPoint x="819.9999999999999" y="270" as="sourcePoint" />
            <mxPoint x="820" y="160" as="targetPoint" />
          </mxGeometry>
        </mxCell>
        <mxCell id="9xch-vxLECyQSL4lX-pL-121" value="&lt;font size=&quot;1&quot;&gt;Selected Item&lt;/font&gt;" style="text;html=1;align=center;verticalAlign=middle;resizable=0;points=[];autosize=1;strokeColor=none;fillColor=none;rotation=-90;" parent="1" vertex="1">
          <mxGeometry x="795" y="200" width="80" height="30" as="geometry" />
        </mxCell>
        <mxCell id="9xch-vxLECyQSL4lX-pL-122" value="&lt;font size=&quot;1&quot;&gt;Item Detail&lt;/font&gt;" style="text;html=1;align=center;verticalAlign=middle;resizable=0;points=[];autosize=1;strokeColor=none;fillColor=none;rotation=-90;" parent="1" vertex="1">
          <mxGeometry x="780" y="200" width="70" height="30" as="geometry" />
        </mxCell>
        <mxCell id="9xch-vxLECyQSL4lX-pL-123" value="" style="endArrow=classic;html=1;rounded=0;exitX=0.3;exitY=0.052;exitDx=0;exitDy=0;exitPerimeter=0;" parent="1" edge="1">
          <mxGeometry width="50" height="50" relative="1" as="geometry">
            <mxPoint x="860" y="272.49" as="sourcePoint" />
            <mxPoint x="1080" y="160" as="targetPoint" />
            <Array as="points">
              <mxPoint x="860" y="220" />
              <mxPoint x="1080" y="220" />
            </Array>
          </mxGeometry>
        </mxCell>
        <mxCell id="9xch-vxLECyQSL4lX-pL-124" value="&lt;font size=&quot;1&quot;&gt;Modify Inventory&lt;/font&gt;" style="text;html=1;align=center;verticalAlign=middle;resizable=0;points=[];autosize=1;strokeColor=none;fillColor=none;" parent="1" vertex="1">
          <mxGeometry x="915" y="200" width="100" height="30" as="geometry" />
        </mxCell>
        <mxCell id="9xch-vxLECyQSL4lX-pL-125" value="" style="endArrow=classic;html=1;rounded=0;entryX=0.5;entryY=0;entryDx=0;entryDy=0;" parent="1" target="9xch-vxLECyQSL4lX-pL-6" edge="1">
          <mxGeometry width="50" height="50" relative="1" as="geometry">
            <mxPoint x="1080" y="320" as="sourcePoint" />
            <mxPoint x="895" y="340" as="targetPoint" />
            <Array as="points">
              <mxPoint x="1080" y="380" />
              <mxPoint x="840" y="380" />
            </Array>
          </mxGeometry>
        </mxCell>
        <mxCell id="9xch-vxLECyQSL4lX-pL-127" value="&lt;font size=&quot;1&quot;&gt;Item Detail&lt;/font&gt;" style="text;html=1;align=center;verticalAlign=middle;resizable=0;points=[];autosize=1;strokeColor=none;fillColor=none;" parent="1" vertex="1">
          <mxGeometry x="945" y="360" width="70" height="30" as="geometry" />
        </mxCell>
        <mxCell id="9xch-vxLECyQSL4lX-pL-129" value="" style="endArrow=classic;html=1;rounded=0;entryX=1;entryY=0.5;entryDx=0;entryDy=0;" parent="1" target="9xch-vxLECyQSL4lX-pL-99" edge="1">
          <mxGeometry width="50" height="50" relative="1" as="geometry">
            <mxPoint x="1080" y="490" as="sourcePoint" />
            <mxPoint x="875" y="609" as="targetPoint" />
            <Array as="points">
              <mxPoint x="1080" y="620" />
              <mxPoint x="880" y="620" />
            </Array>
          </mxGeometry>
        </mxCell>
        <mxCell id="9xch-vxLECyQSL4lX-pL-130" value="" style="endArrow=classic;html=1;rounded=0;entryX=0;entryY=1;entryDx=0;entryDy=0;" parent="1" target="9xch-vxLECyQSL4lX-pL-9" edge="1">
          <mxGeometry width="50" height="50" relative="1" as="geometry">
            <mxPoint x="640" y="600" as="sourcePoint" />
            <mxPoint x="790" y="600" as="targetPoint" />
            <Array as="points">
              <mxPoint x="1045" y="600" />
            </Array>
          </mxGeometry>
        </mxCell>
        <mxCell id="9xch-vxLECyQSL4lX-pL-131" value="" style="group" parent="1" vertex="1" connectable="0">
          <mxGeometry x="550" y="760" width="95" height="40" as="geometry" />
        </mxCell>
        <mxCell id="9xch-vxLECyQSL4lX-pL-132" value="" style="endArrow=none;html=1;rounded=0;movable=1;resizable=1;rotatable=1;deletable=1;editable=1;locked=0;connectable=1;" parent="9xch-vxLECyQSL4lX-pL-131" edge="1">
          <mxGeometry width="50" height="50" relative="1" as="geometry">
            <mxPoint as="sourcePoint" />
            <mxPoint x="95" as="targetPoint" />
          </mxGeometry>
        </mxCell>
        <mxCell id="9xch-vxLECyQSL4lX-pL-133" value="" style="endArrow=none;html=1;rounded=0;movable=1;resizable=1;rotatable=1;deletable=1;editable=1;locked=0;connectable=1;" parent="9xch-vxLECyQSL4lX-pL-131" edge="1">
          <mxGeometry width="50" height="50" relative="1" as="geometry">
            <mxPoint y="40" as="sourcePoint" />
            <mxPoint x="95" y="40" as="targetPoint" />
          </mxGeometry>
        </mxCell>
        <mxCell id="9xch-vxLECyQSL4lX-pL-134" value="Inventory" style="text;html=1;align=center;verticalAlign=middle;resizable=1;points=[];autosize=1;strokeColor=none;fillColor=none;movable=1;rotatable=1;deletable=1;editable=1;locked=0;connectable=1;" parent="9xch-vxLECyQSL4lX-pL-131" vertex="1">
          <mxGeometry x="14.25" y="5" width="66.5" height="30" as="geometry" />
        </mxCell>
        <mxCell id="9xch-vxLECyQSL4lX-pL-135" value="&lt;font style=&quot;font-size: 9px;&quot;&gt;Selection Details&lt;/font&gt;" style="text;html=1;align=center;verticalAlign=middle;resizable=0;points=[];autosize=1;strokeColor=none;fillColor=none;" parent="1" vertex="1">
          <mxGeometry x="790" y="580" width="90" height="30" as="geometry" />
        </mxCell>
        <mxCell id="9xch-vxLECyQSL4lX-pL-136" value="&lt;font style=&quot;font-size: 9px;&quot;&gt;Skill Details&lt;/font&gt;" style="text;html=1;align=center;verticalAlign=middle;resizable=0;points=[];autosize=1;strokeColor=none;fillColor=none;" parent="1" vertex="1">
          <mxGeometry x="800" y="600" width="70" height="30" as="geometry" />
        </mxCell>
        <mxCell id="9xch-vxLECyQSL4lX-pL-137" value="" style="group" parent="1" vertex="1" connectable="0">
          <mxGeometry x="1270" y="600" width="100" height="40" as="geometry" />
        </mxCell>
        <mxCell id="9xch-vxLECyQSL4lX-pL-138" value="" style="endArrow=none;html=1;rounded=0;movable=1;resizable=1;rotatable=1;deletable=1;editable=1;locked=0;connectable=1;" parent="9xch-vxLECyQSL4lX-pL-137" edge="1">
          <mxGeometry width="50" height="50" relative="1" as="geometry">
            <mxPoint as="sourcePoint" />
            <mxPoint x="100" as="targetPoint" />
          </mxGeometry>
        </mxCell>
        <mxCell id="9xch-vxLECyQSL4lX-pL-139" value="" style="endArrow=none;html=1;rounded=0;movable=1;resizable=1;rotatable=1;deletable=1;editable=1;locked=0;connectable=1;" parent="9xch-vxLECyQSL4lX-pL-137" edge="1">
          <mxGeometry width="50" height="50" relative="1" as="geometry">
            <mxPoint y="40" as="sourcePoint" />
            <mxPoint x="100" y="40" as="targetPoint" />
          </mxGeometry>
        </mxCell>
        <mxCell id="9xch-vxLECyQSL4lX-pL-140" value="Player" style="text;html=1;align=center;verticalAlign=middle;resizable=1;points=[];autosize=1;strokeColor=none;fillColor=none;movable=1;rotatable=1;deletable=1;editable=1;locked=0;connectable=1;" parent="9xch-vxLECyQSL4lX-pL-137" vertex="1">
          <mxGeometry x="20" y="5" width="60" height="30" as="geometry" />
        </mxCell>
        <mxCell id="9xch-vxLECyQSL4lX-pL-141" value="" style="endArrow=classic;html=1;rounded=0;entryX=1;entryY=1;entryDx=0;entryDy=0;" parent="1" target="9xch-vxLECyQSL4lX-pL-9" edge="1">
          <mxGeometry width="50" height="50" relative="1" as="geometry">
            <mxPoint x="1320" y="600" as="sourcePoint" />
            <mxPoint x="1180" y="580" as="targetPoint" />
            <Array as="points">
              <mxPoint x="1320" y="540" />
              <mxPoint x="1115" y="540" />
            </Array>
          </mxGeometry>
        </mxCell>
        <mxCell id="9xch-vxLECyQSL4lX-pL-143" value="" style="endArrow=classic;html=1;rounded=0;entryX=0;entryY=0.5;entryDx=0;entryDy=0;" parent="1" edge="1">
          <mxGeometry width="50" height="50" relative="1" as="geometry">
            <mxPoint x="600" y="320" as="sourcePoint" />
            <mxPoint x="1030" y="459.41" as="targetPoint" />
            <Array as="points">
              <mxPoint x="600" y="360" />
              <mxPoint x="480" y="360" />
              <mxPoint x="480" y="540" />
              <mxPoint x="960" y="540" />
              <mxPoint x="960" y="460" />
            </Array>
          </mxGeometry>
        </mxCell>
        <mxCell id="9xch-vxLECyQSL4lX-pL-144" value="&lt;font style=&quot;font-size: 9px;&quot;&gt;Party Details&lt;/font&gt;" style="text;html=1;align=center;verticalAlign=middle;resizable=0;points=[];autosize=1;strokeColor=none;fillColor=none;rotation=0;" parent="1" vertex="1">
          <mxGeometry x="700" y="520" width="70" height="30" as="geometry" />
        </mxCell>
        <mxCell id="9xch-vxLECyQSL4lX-pL-145" value="&lt;font style=&quot;font-size: 9px;&quot;&gt;Player Details&lt;/font&gt;" style="text;html=1;align=center;verticalAlign=middle;resizable=0;points=[];autosize=1;strokeColor=none;fillColor=none;rotation=0;" parent="1" vertex="1">
          <mxGeometry x="1166" y="520" width="80" height="30" as="geometry" />
        </mxCell>
        <mxCell id="9xch-vxLECyQSL4lX-pL-146" value="12 Battle Status" style="ellipse;whiteSpace=wrap;html=1;" parent="1" vertex="1">
          <mxGeometry x="310" y="590" width="100" height="60" as="geometry" />
        </mxCell>
        <mxCell id="9xch-vxLECyQSL4lX-pL-147" value="" style="endArrow=classic;html=1;rounded=0;entryX=0.5;entryY=0;entryDx=0;entryDy=0;exitX=1;exitY=0.5;exitDx=0;exitDy=0;" parent="1" source="9xch-vxLECyQSL4lX-pL-8" edge="1">
          <mxGeometry width="50" height="50" relative="1" as="geometry">
            <mxPoint x="1079.47" y="10" as="sourcePoint" />
            <mxPoint x="1079.47" y="120" as="targetPoint" />
            <Array as="points">
              <mxPoint x="1079" y="-20" />
            </Array>
          </mxGeometry>
        </mxCell>
        <mxCell id="9xch-vxLECyQSL4lX-pL-149" value="" style="endArrow=classic;html=1;rounded=0;entryX=1;entryY=1;entryDx=0;entryDy=0;" parent="1" target="9xch-vxLECyQSL4lX-pL-8" edge="1">
          <mxGeometry width="50" height="50" relative="1" as="geometry">
            <mxPoint x="1060" y="120" as="sourcePoint" />
            <mxPoint x="1005.1" y="10" as="targetPoint" />
            <Array as="points">
              <mxPoint x="1060" y="1" />
            </Array>
          </mxGeometry>
        </mxCell>
        <mxCell id="9xch-vxLECyQSL4lX-pL-150" value="" style="endArrow=classic;html=1;rounded=0;entryX=0.5;entryY=0;entryDx=0;entryDy=0;exitX=0.5;exitY=1;exitDx=0;exitDy=0;" parent="1" source="9xch-vxLECyQSL4lX-pL-8" target="9xch-vxLECyQSL4lX-pL-69" edge="1">
          <mxGeometry width="50" height="50" relative="1" as="geometry">
            <mxPoint x="810" y="60" as="sourcePoint" />
            <mxPoint x="972" y="60" as="targetPoint" />
          </mxGeometry>
        </mxCell>
        <mxCell id="9xch-vxLECyQSL4lX-pL-152" value="" style="endArrow=classic;html=1;rounded=0;exitX=0.3;exitY=0.052;exitDx=0;exitDy=0;exitPerimeter=0;" parent="1" edge="1">
          <mxGeometry width="50" height="50" relative="1" as="geometry">
            <mxPoint x="860" y="120" as="sourcePoint" />
            <mxPoint x="860" y="7" as="targetPoint" />
          </mxGeometry>
        </mxCell>
        <mxCell id="9xch-vxLECyQSL4lX-pL-153" value="" style="endArrow=classic;html=1;rounded=0;entryX=0.5;entryY=0;entryDx=0;entryDy=0;exitX=0.5;exitY=1;exitDx=0;exitDy=0;" parent="1" edge="1">
          <mxGeometry width="50" height="50" relative="1" as="geometry">
            <mxPoint x="1319.41" y="10" as="sourcePoint" />
            <mxPoint x="1319.41" y="120" as="targetPoint" />
          </mxGeometry>
        </mxCell>
        <mxCell id="9xch-vxLECyQSL4lX-pL-155" value="" style="endArrow=classic;html=1;rounded=0;exitX=0.5;exitY=0;exitDx=0;exitDy=0;entryX=0;entryY=0;entryDx=0;entryDy=0;" parent="1" source="9xch-vxLECyQSL4lX-pL-7" target="9xch-vxLECyQSL4lX-pL-69" edge="1">
          <mxGeometry width="50" height="50" relative="1" as="geometry">
            <mxPoint x="830" y="283" as="sourcePoint" />
            <mxPoint x="1140" y="-30" as="targetPoint" />
            <Array as="points">
              <mxPoint x="1320" y="-80" />
              <mxPoint x="760" y="-80" />
              <mxPoint x="760" y="80" />
            </Array>
          </mxGeometry>
        </mxCell>
        <mxCell id="9xch-vxLECyQSL4lX-pL-156" value="&lt;font size=&quot;1&quot;&gt;Inventory Detail&lt;/font&gt;" style="text;html=1;align=center;verticalAlign=middle;resizable=0;points=[];autosize=1;strokeColor=none;fillColor=none;" parent="1" vertex="1">
          <mxGeometry x="945" y="-20" width="90" height="30" as="geometry" />
        </mxCell>
        <mxCell id="9xch-vxLECyQSL4lX-pL-158" value="&lt;font size=&quot;1&quot;&gt;Modify Detail&lt;/font&gt;" style="text;html=1;align=center;verticalAlign=middle;resizable=0;points=[];autosize=1;strokeColor=none;fillColor=none;" parent="1" vertex="1">
          <mxGeometry x="950" y="-40" width="80" height="30" as="geometry" />
        </mxCell>
        <mxCell id="9xch-vxLECyQSL4lX-pL-159" value="&lt;font size=&quot;1&quot;&gt;Environment Detail&lt;/font&gt;" style="text;html=1;align=center;verticalAlign=middle;resizable=0;points=[];autosize=1;strokeColor=none;fillColor=none;" parent="1" vertex="1">
          <mxGeometry x="1000" y="-100" width="110" height="30" as="geometry" />
        </mxCell>
        <mxCell id="9xch-vxLECyQSL4lX-pL-162" value="" style="endArrow=classic;html=1;rounded=0;entryX=1;entryY=0.5;entryDx=0;entryDy=0;" parent="1" target="9xch-vxLECyQSL4lX-pL-7" edge="1">
          <mxGeometry width="50" height="50" relative="1" as="geometry">
            <mxPoint x="1130" y="300" as="sourcePoint" />
            <mxPoint x="1350" y="70" as="targetPoint" />
            <Array as="points">
              <mxPoint x="1440" y="300" />
              <mxPoint x="1440" y="-20" />
            </Array>
          </mxGeometry>
        </mxCell>
        <mxCell id="9xch-vxLECyQSL4lX-pL-163" value="&lt;font size=&quot;1&quot;&gt;Item Detail&lt;/font&gt;" style="text;html=1;align=center;verticalAlign=middle;resizable=0;points=[];autosize=1;strokeColor=none;fillColor=none;" parent="1" vertex="1">
          <mxGeometry x="1261" y="280" width="70" height="30" as="geometry" />
        </mxCell>
        <mxCell id="9xch-vxLECyQSL4lX-pL-164" value="&lt;font size=&quot;1&quot;&gt;Modify Environment&lt;/font&gt;" style="text;html=1;align=center;verticalAlign=middle;resizable=0;points=[];autosize=1;strokeColor=none;fillColor=none;rotation=-90;" parent="1" vertex="1">
          <mxGeometry x="1260" y="50" width="110" height="30" as="geometry" />
        </mxCell>
        <mxCell id="9xch-vxLECyQSL4lX-pL-165" value="" style="endArrow=classic;html=1;rounded=0;entryX=0.5;entryY=1;entryDx=0;entryDy=0;exitX=0.5;exitY=0;exitDx=0;exitDy=0;" parent="1" source="9xch-vxLECyQSL4lX-pL-146" edge="1">
          <mxGeometry width="50" height="50" relative="1" as="geometry">
            <mxPoint x="160" y="460" as="sourcePoint" />
            <mxPoint x="361.5" y="320" as="targetPoint" />
            <Array as="points">
              <mxPoint x="360" y="460" />
            </Array>
          </mxGeometry>
        </mxCell>
        <mxCell id="9xch-vxLECyQSL4lX-pL-166" value="&lt;font size=&quot;1&quot;&gt;Enemy Difficulty&lt;/font&gt;" style="text;html=1;align=center;verticalAlign=middle;resizable=0;points=[];autosize=1;strokeColor=none;fillColor=none;" parent="1" vertex="1">
          <mxGeometry x="205" y="440" width="100" height="30" as="geometry" />
        </mxCell>
        <mxCell id="9xch-vxLECyQSL4lX-pL-167" value="" style="endArrow=classic;html=1;rounded=0;entryX=0.972;entryY=0.669;entryDx=0;entryDy=0;entryPerimeter=0;" parent="1" edge="1">
          <mxGeometry width="50" height="50" relative="1" as="geometry">
            <mxPoint x="340" y="320" as="sourcePoint" />
            <mxPoint x="160" y="459.31" as="targetPoint" />
            <Array as="points">
              <mxPoint x="340" y="459" />
            </Array>
          </mxGeometry>
        </mxCell>
        <mxCell id="9xch-vxLECyQSL4lX-pL-168" value="&lt;font style=&quot;font-size: 9px;&quot;&gt;Modify Difficulty&lt;/font&gt;" style="text;html=1;align=center;verticalAlign=middle;resizable=0;points=[];autosize=1;strokeColor=none;fillColor=none;rotation=-90;" parent="1" vertex="1">
          <mxGeometry x="309" y="460" width="90" height="30" as="geometry" />
        </mxCell>
        <mxCell id="9xch-vxLECyQSL4lX-pL-169" value="" style="endArrow=classic;html=1;rounded=0;exitX=1;exitY=0.5;exitDx=0;exitDy=0;" parent="1" source="9xch-vxLECyQSL4lX-pL-12" edge="1">
          <mxGeometry width="50" height="50" relative="1" as="geometry">
            <mxPoint x="170" y="620" as="sourcePoint" />
            <mxPoint x="309" y="619.5" as="targetPoint" />
          </mxGeometry>
        </mxCell>
        <mxCell id="9xch-vxLECyQSL4lX-pL-170" value="&lt;font size=&quot;1&quot;&gt;Enemy Interaction&lt;/font&gt;" style="text;html=1;align=center;verticalAlign=middle;resizable=0;points=[];autosize=1;strokeColor=none;fillColor=none;" parent="1" vertex="1">
          <mxGeometry x="185" y="600" width="100" height="30" as="geometry" />
        </mxCell>
        <mxCell id="9xch-vxLECyQSL4lX-pL-172" value="&lt;font style=&quot;font-size: 9px;&quot;&gt;Enemy Details&lt;/font&gt;" style="text;html=1;align=center;verticalAlign=middle;resizable=0;points=[];autosize=1;strokeColor=none;fillColor=none;rotation=-90;" parent="1" vertex="1">
          <mxGeometry x="71" y="517" width="80" height="30" as="geometry" />
        </mxCell>
        <mxCell id="9xch-vxLECyQSL4lX-pL-173" value="" style="endArrow=classic;html=1;rounded=0;entryX=0.5;entryY=0;entryDx=0;entryDy=0;exitX=0.5;exitY=1;exitDx=0;exitDy=0;" parent="1" edge="1">
          <mxGeometry width="50" height="50" relative="1" as="geometry">
            <mxPoint x="117.08" y="480" as="sourcePoint" />
            <mxPoint x="117.08" y="590" as="targetPoint" />
          </mxGeometry>
        </mxCell>
        <mxCell id="9xch-vxLECyQSL4lX-pL-175" value="" style="endArrow=classic;html=1;rounded=0;exitX=0.5;exitY=0;exitDx=0;exitDy=0;entryX=0.5;entryY=1;entryDx=0;entryDy=0;" parent="1" source="9xch-vxLECyQSL4lX-pL-11" target="9xch-vxLECyQSL4lX-pL-146" edge="1">
          <mxGeometry width="50" height="50" relative="1" as="geometry">
            <mxPoint x="439.99999999999994" y="640" as="sourcePoint" />
            <mxPoint x="440.41999999999996" y="740" as="targetPoint" />
          </mxGeometry>
        </mxCell>
        <mxCell id="9xch-vxLECyQSL4lX-pL-176" value="&lt;font style=&quot;font-size: 9px;&quot;&gt;Player Interaction&lt;/font&gt;" style="text;html=1;align=center;verticalAlign=middle;resizable=0;points=[];autosize=1;strokeColor=none;fillColor=none;rotation=-90;" parent="1" vertex="1">
          <mxGeometry x="306" y="691" width="90" height="30" as="geometry" />
        </mxCell>
        <mxCell id="9xch-vxLECyQSL4lX-pL-177" value="" style="endArrow=classic;html=1;rounded=0;entryX=1;entryY=0.5;entryDx=0;entryDy=0;" parent="1" edge="1">
          <mxGeometry width="50" height="50" relative="1" as="geometry">
            <mxPoint x="560" y="780" as="sourcePoint" />
            <mxPoint x="410" y="779.1700000000001" as="targetPoint" />
          </mxGeometry>
        </mxCell>
        <mxCell id="9xch-vxLECyQSL4lX-pL-178" value="&lt;font size=&quot;1&quot;&gt;Inventory Detail&lt;/font&gt;" style="text;html=1;align=center;verticalAlign=middle;resizable=0;points=[];autosize=1;strokeColor=none;fillColor=none;" parent="1" vertex="1">
          <mxGeometry x="440" y="756" width="90" height="30" as="geometry" />
        </mxCell>
        <mxCell id="9xch-vxLECyQSL4lX-pL-179" value="" style="endArrow=classic;html=1;rounded=0;exitX=1;exitY=0.5;exitDx=0;exitDy=0;" parent="1" source="9xch-vxLECyQSL4lX-pL-146" edge="1">
          <mxGeometry width="50" height="50" relative="1" as="geometry">
            <mxPoint x="570" y="680.83" as="sourcePoint" />
            <mxPoint x="600" y="760" as="targetPoint" />
            <Array as="points">
              <mxPoint x="480" y="620" />
              <mxPoint x="480" y="720" />
              <mxPoint x="600" y="720" />
            </Array>
          </mxGeometry>
        </mxCell>
        <mxCell id="9xch-vxLECyQSL4lX-pL-180" value="&lt;font size=&quot;1&quot;&gt;Modify Inventory&lt;/font&gt;" style="text;html=1;align=center;verticalAlign=middle;resizable=0;points=[];autosize=1;strokeColor=none;fillColor=none;" parent="1" vertex="1">
          <mxGeometry x="485" y="700" width="100" height="30" as="geometry" />
        </mxCell>
        <mxCell id="9xch-vxLECyQSL4lX-pL-181" value="" style="endArrow=classic;html=1;rounded=0;entryX=0.5;entryY=1;entryDx=0;entryDy=0;" parent="1" target="9xch-vxLECyQSL4lX-pL-11" edge="1">
          <mxGeometry width="50" height="50" relative="1" as="geometry">
            <mxPoint x="640" y="640" as="sourcePoint" />
            <mxPoint x="370" y="660" as="targetPoint" />
            <Array as="points">
              <mxPoint x="680" y="640" />
              <mxPoint x="760" y="640" />
              <mxPoint x="760" y="680" />
              <mxPoint x="760" y="840" />
              <mxPoint x="359" y="840" />
            </Array>
          </mxGeometry>
        </mxCell>
        <mxCell id="9xch-vxLECyQSL4lX-pL-182" value="&lt;font size=&quot;1&quot;&gt;Player Choice&lt;/font&gt;" style="text;html=1;align=center;verticalAlign=middle;resizable=0;points=[];autosize=1;strokeColor=none;fillColor=none;" parent="1" vertex="1">
          <mxGeometry x="490" y="820" width="90" height="30" as="geometry" />
        </mxCell>
        <mxCell id="9xch-vxLECyQSL4lX-pL-183" value="" style="endArrow=classic;html=1;rounded=0;entryX=0;entryY=1;entryDx=0;entryDy=0;" parent="1" target="9xch-vxLECyQSL4lX-pL-11" edge="1">
          <mxGeometry width="50" height="50" relative="1" as="geometry">
            <mxPoint x="1370" y="460" as="sourcePoint" />
            <mxPoint x="590" y="870" as="targetPoint" />
            <Array as="points">
              <mxPoint x="1440" y="460" />
              <mxPoint x="1440" y="860" />
              <mxPoint x="323" y="860" />
            </Array>
          </mxGeometry>
        </mxCell>
        <mxCell id="9xch-vxLECyQSL4lX-pL-184" value="&lt;font size=&quot;1&quot;&gt;Skill Detail&lt;/font&gt;" style="text;html=1;align=center;verticalAlign=middle;resizable=0;points=[];autosize=1;strokeColor=none;fillColor=none;" parent="1" vertex="1">
          <mxGeometry x="790" y="840" width="70" height="30" as="geometry" />
        </mxCell>
        <mxCell id="9xch-vxLECyQSL4lX-pL-185" value="" style="endArrow=classic;html=1;rounded=0;entryX=0.5;entryY=1;entryDx=0;entryDy=0;" parent="1" target="9xch-vxLECyQSL4lX-pL-12" edge="1">
          <mxGeometry width="50" height="50" relative="1" as="geometry">
            <mxPoint x="1370" y="450" as="sourcePoint" />
            <mxPoint x="333" y="811" as="targetPoint" />
            <Array as="points">
              <mxPoint x="1460" y="450" />
              <mxPoint x="1460" y="880" />
              <mxPoint x="118" y="880" />
            </Array>
          </mxGeometry>
        </mxCell>
        <mxCell id="9xch-vxLECyQSL4lX-pL-186" value="&lt;font size=&quot;1&quot;&gt;Skill Detail&lt;/font&gt;" style="text;html=1;align=center;verticalAlign=middle;resizable=0;points=[];autosize=1;strokeColor=none;fillColor=none;" parent="1" vertex="1">
          <mxGeometry x="790" y="860" width="70" height="30" as="geometry" />
        </mxCell>
        <mxCell id="9xch-vxLECyQSL4lX-pL-188" value="" style="group" parent="1" vertex="1" connectable="0">
          <mxGeometry x="309" y="-200" width="120" height="40" as="geometry" />
        </mxCell>
        <mxCell id="9xch-vxLECyQSL4lX-pL-189" value="" style="endArrow=none;html=1;rounded=0;movable=1;resizable=1;rotatable=1;deletable=1;editable=1;locked=0;connectable=1;" parent="9xch-vxLECyQSL4lX-pL-188" edge="1">
          <mxGeometry width="50" height="50" relative="1" as="geometry">
            <mxPoint as="sourcePoint" />
            <mxPoint x="100" as="targetPoint" />
          </mxGeometry>
        </mxCell>
        <mxCell id="9xch-vxLECyQSL4lX-pL-190" value="" style="endArrow=none;html=1;rounded=0;movable=1;resizable=1;rotatable=1;deletable=1;editable=1;locked=0;connectable=1;" parent="9xch-vxLECyQSL4lX-pL-188" edge="1">
          <mxGeometry width="50" height="50" relative="1" as="geometry">
            <mxPoint y="40" as="sourcePoint" />
            <mxPoint x="100" y="40" as="targetPoint" />
          </mxGeometry>
        </mxCell>
        <mxCell id="9xch-vxLECyQSL4lX-pL-191" value="NPC" style="text;html=1;align=center;verticalAlign=middle;resizable=1;points=[];autosize=1;strokeColor=none;fillColor=none;movable=1;rotatable=1;deletable=1;editable=1;locked=0;connectable=1;" parent="9xch-vxLECyQSL4lX-pL-188" vertex="1">
          <mxGeometry x="25" y="5" width="50" height="30" as="geometry" />
        </mxCell>
        <mxCell id="9xch-vxLECyQSL4lX-pL-196" value="" style="group" parent="1" vertex="1" connectable="0">
          <mxGeometry x="70" y="-200" width="100" height="40" as="geometry" />
        </mxCell>
        <mxCell id="9xch-vxLECyQSL4lX-pL-197" value="" style="endArrow=none;html=1;rounded=0;movable=1;resizable=1;rotatable=1;deletable=1;editable=1;locked=0;connectable=1;" parent="9xch-vxLECyQSL4lX-pL-196" edge="1">
          <mxGeometry width="50" height="50" relative="1" as="geometry">
            <mxPoint as="sourcePoint" />
            <mxPoint x="100" as="targetPoint" />
          </mxGeometry>
        </mxCell>
        <mxCell id="9xch-vxLECyQSL4lX-pL-198" value="" style="endArrow=none;html=1;rounded=0;movable=1;resizable=1;rotatable=1;deletable=1;editable=1;locked=0;connectable=1;" parent="9xch-vxLECyQSL4lX-pL-196" edge="1">
          <mxGeometry width="50" height="50" relative="1" as="geometry">
            <mxPoint y="40" as="sourcePoint" />
            <mxPoint x="100" y="40" as="targetPoint" />
          </mxGeometry>
        </mxCell>
        <mxCell id="9xch-vxLECyQSL4lX-pL-199" value="Environment" style="text;html=1;align=center;verticalAlign=middle;resizable=1;points=[];autosize=1;strokeColor=none;fillColor=none;movable=1;rotatable=1;deletable=1;editable=1;locked=0;connectable=1;" parent="9xch-vxLECyQSL4lX-pL-196" vertex="1">
          <mxGeometry x="5" y="5" width="90" height="30" as="geometry" />
        </mxCell>
        <mxCell id="9xch-vxLECyQSL4lX-pL-200" value="" style="endArrow=classic;html=1;rounded=0;entryX=0;entryY=0;entryDx=0;entryDy=0;exitX=0.5;exitY=1.167;exitDx=0;exitDy=0;exitPerimeter=0;" parent="1" source="9xch-vxLECyQSL4lX-pL-199" target="9xch-vxLECyQSL4lX-pL-3" edge="1">
          <mxGeometry width="50" height="50" relative="1" as="geometry">
            <mxPoint x="175" y="70" as="sourcePoint" />
            <mxPoint x="337" y="70" as="targetPoint" />
            <Array as="points">
              <mxPoint x="120" y="-120" />
              <mxPoint x="200" y="-120" />
              <mxPoint x="200" y="80" />
              <mxPoint x="324" y="80" />
            </Array>
          </mxGeometry>
        </mxCell>
        <mxCell id="9xch-vxLECyQSL4lX-pL-201" value="" style="endArrow=classic;html=1;rounded=0;entryX=0.287;entryY=0.041;entryDx=0;entryDy=0;entryPerimeter=0;" parent="1" target="9xch-vxLECyQSL4lX-pL-3" edge="1">
          <mxGeometry width="50" height="50" relative="1" as="geometry">
            <mxPoint x="360" y="-160" as="sourcePoint" />
            <mxPoint x="332" y="130" as="targetPoint" />
            <Array as="points">
              <mxPoint x="360" y="-120" />
              <mxPoint x="280" y="-120" />
              <mxPoint x="280" y="40" />
              <mxPoint x="339" y="40" />
            </Array>
          </mxGeometry>
        </mxCell>
        <mxCell id="9xch-vxLECyQSL4lX-pL-202" value="&lt;font style=&quot;font-size: 9px;&quot;&gt;Environment Details&lt;/font&gt;" style="text;html=1;align=center;verticalAlign=middle;resizable=0;points=[];autosize=1;strokeColor=none;fillColor=none;" parent="1" vertex="1">
          <mxGeometry x="195" y="60" width="100" height="30" as="geometry" />
        </mxCell>
        <mxCell id="9xch-vxLECyQSL4lX-pL-205" value="&lt;font style=&quot;font-size: 9px;&quot;&gt;NPC Detail&lt;/font&gt;" style="text;html=1;align=center;verticalAlign=middle;resizable=0;points=[];autosize=1;strokeColor=none;fillColor=none;" parent="1" vertex="1">
          <mxGeometry x="275" y="20" width="70" height="30" as="geometry" />
        </mxCell>
        <mxCell id="9xch-vxLECyQSL4lX-pL-206" value="" style="endArrow=classic;html=1;rounded=0;exitX=0;exitY=0;exitDx=0;exitDy=0;" parent="1" source="9xch-vxLECyQSL4lX-pL-6" edge="1">
          <mxGeometry width="50" height="50" relative="1" as="geometry">
            <mxPoint x="800" y="440" as="sourcePoint" />
            <mxPoint x="800" y="160" as="targetPoint" />
            <Array as="points">
              <mxPoint x="720" y="439" />
              <mxPoint x="720" y="200" />
              <mxPoint x="800" y="200" />
            </Array>
          </mxGeometry>
        </mxCell>
        <mxCell id="9xch-vxLECyQSL4lX-pL-207" value="&lt;font size=&quot;1&quot;&gt;Show Dialouge&lt;/font&gt;" style="text;html=1;align=center;verticalAlign=middle;resizable=0;points=[];autosize=1;strokeColor=none;fillColor=none;rotation=-90;" parent="1" vertex="1">
          <mxGeometry x="670" y="300" width="90" height="30" as="geometry" />
        </mxCell>
        <mxCell id="9xch-vxLECyQSL4lX-pL-209" value="" style="group" parent="1" vertex="1" connectable="0">
          <mxGeometry x="1510" y="440" width="95" height="40" as="geometry" />
        </mxCell>
        <mxCell id="9xch-vxLECyQSL4lX-pL-210" value="" style="endArrow=none;html=1;rounded=0;movable=1;resizable=1;rotatable=1;deletable=1;editable=1;locked=0;connectable=1;" parent="9xch-vxLECyQSL4lX-pL-209" edge="1">
          <mxGeometry width="50" height="50" relative="1" as="geometry">
            <mxPoint as="sourcePoint" />
            <mxPoint x="95" as="targetPoint" />
          </mxGeometry>
        </mxCell>
        <mxCell id="9xch-vxLECyQSL4lX-pL-211" value="" style="endArrow=none;html=1;rounded=0;movable=1;resizable=1;rotatable=1;deletable=1;editable=1;locked=0;connectable=1;" parent="9xch-vxLECyQSL4lX-pL-209" edge="1">
          <mxGeometry width="50" height="50" relative="1" as="geometry">
            <mxPoint y="40" as="sourcePoint" />
            <mxPoint x="95" y="40" as="targetPoint" />
          </mxGeometry>
        </mxCell>
        <mxCell id="9xch-vxLECyQSL4lX-pL-212" value="Inventory" style="text;html=1;align=center;verticalAlign=middle;resizable=1;points=[];autosize=1;strokeColor=none;fillColor=none;movable=1;rotatable=1;deletable=1;editable=1;locked=0;connectable=1;" parent="9xch-vxLECyQSL4lX-pL-209" vertex="1">
          <mxGeometry x="14.25" y="5" width="66.5" height="30" as="geometry" />
        </mxCell>
        <mxCell id="9xch-vxLECyQSL4lX-pL-213" value="" style="endArrow=classic;html=1;rounded=0;exitX=1;exitY=0;exitDx=0;exitDy=0;" parent="1" source="9xch-vxLECyQSL4lX-pL-6" edge="1">
          <mxGeometry width="50" height="50" relative="1" as="geometry">
            <mxPoint x="1110" y="410.5" as="sourcePoint" />
            <mxPoint x="1560" y="440" as="targetPoint" />
            <Array as="points">
              <mxPoint x="875" y="400" />
              <mxPoint x="1560" y="400" />
            </Array>
          </mxGeometry>
        </mxCell>
        <mxCell id="9xch-vxLECyQSL4lX-pL-214" value="&lt;font size=&quot;1&quot;&gt;Modify Inventory&lt;/font&gt;" style="text;html=1;align=center;verticalAlign=middle;resizable=0;points=[];autosize=1;strokeColor=none;fillColor=none;" parent="1" vertex="1">
          <mxGeometry x="1165" y="380" width="100" height="30" as="geometry" />
        </mxCell>
        <mxCell id="9xch-vxLECyQSL4lX-pL-216" value="" style="endArrow=classic;html=1;rounded=0;exitX=0;exitY=0.5;exitDx=0;exitDy=0;" parent="1" source="9xch-vxLECyQSL4lX-pL-7" edge="1">
          <mxGeometry width="50" height="50" relative="1" as="geometry">
            <mxPoint x="900" y="-10" as="sourcePoint" />
            <mxPoint x="1100" y="120" as="targetPoint" />
            <Array as="points">
              <mxPoint x="1100" y="-20" />
            </Array>
          </mxGeometry>
        </mxCell>
        <mxCell id="9xch-vxLECyQSL4lX-pL-218" value="&lt;font size=&quot;1&quot;&gt;Modify Detail&lt;/font&gt;" style="text;html=1;align=center;verticalAlign=middle;resizable=0;points=[];autosize=1;strokeColor=none;fillColor=none;" parent="1" vertex="1">
          <mxGeometry x="1150" y="-40" width="80" height="30" as="geometry" />
        </mxCell>
        <mxCell id="9xch-vxLECyQSL4lX-pL-219" value="" style="endArrow=classic;html=1;rounded=0;" parent="1" edge="1">
          <mxGeometry width="50" height="50" relative="1" as="geometry">
            <mxPoint x="1340" y="120" as="sourcePoint" />
            <mxPoint x="1340" y="7" as="targetPoint" />
          </mxGeometry>
        </mxCell>
        <mxCell id="9xch-vxLECyQSL4lX-pL-220" value="&lt;font size=&quot;1&quot;&gt;Environment Detail&lt;/font&gt;" style="text;html=1;align=center;verticalAlign=middle;resizable=0;points=[];autosize=1;strokeColor=none;fillColor=none;rotation=-90;" parent="1" vertex="1">
          <mxGeometry x="1280" y="50" width="110" height="30" as="geometry" />
        </mxCell>
        <mxCell id="a1ymU0LrkVuFRjIakqDR-1" value="" style="endArrow=classic;html=1;rounded=0;exitX=1;exitY=0;exitDx=0;exitDy=0;" edge="1" parent="1" source="9xch-vxLECyQSL4lX-pL-146">
          <mxGeometry width="50" height="50" relative="1" as="geometry">
            <mxPoint x="418" y="600.5" as="sourcePoint" />
            <mxPoint x="560" y="600" as="targetPoint" />
          </mxGeometry>
        </mxCell>
        <mxCell id="a1ymU0LrkVuFRjIakqDR-2" value="&lt;font size=&quot;1&quot;&gt;Show Status&lt;/font&gt;" style="text;html=1;align=center;verticalAlign=middle;resizable=0;points=[];autosize=1;strokeColor=none;fillColor=none;" vertex="1" parent="1">
          <mxGeometry x="440" y="580" width="80" height="30" as="geometry" />
        </mxCell>
        <mxCell id="a1ymU0LrkVuFRjIakqDR-3" value="" style="endArrow=classic;html=1;rounded=0;exitX=0.699;exitY=0.038;exitDx=0;exitDy=0;exitPerimeter=0;" edge="1" parent="1" source="9xch-vxLECyQSL4lX-pL-146">
          <mxGeometry width="50" height="50" relative="1" as="geometry">
            <mxPoint x="380" y="590" as="sourcePoint" />
            <mxPoint x="590" y="600" as="targetPoint" />
            <Array as="points">
              <mxPoint x="380" y="570" />
              <mxPoint x="590" y="570" />
            </Array>
          </mxGeometry>
        </mxCell>
        <mxCell id="a1ymU0LrkVuFRjIakqDR-4" value="&lt;font size=&quot;1&quot;&gt;Battle Detail&lt;/font&gt;" style="text;html=1;align=center;verticalAlign=middle;resizable=0;points=[];autosize=1;strokeColor=none;fillColor=none;" vertex="1" parent="1">
          <mxGeometry x="440" y="550" width="80" height="30" as="geometry" />
        </mxCell>
        <mxCell id="a1ymU0LrkVuFRjIakqDR-6" value="" style="endArrow=classic;html=1;rounded=0;entryX=0.75;entryY=1;entryDx=0;entryDy=0;exitX=0.727;exitY=0.94;exitDx=0;exitDy=0;exitPerimeter=0;" edge="1" parent="1" source="9xch-vxLECyQSL4lX-pL-11" target="9xch-vxLECyQSL4lX-pL-99">
          <mxGeometry width="50" height="50" relative="1" as="geometry">
            <mxPoint x="570" y="790" as="sourcePoint" />
            <mxPoint x="420" y="789.1700000000001" as="targetPoint" />
            <Array as="points">
              <mxPoint x="382" y="820" />
              <mxPoint x="680" y="820" />
              <mxPoint x="680" y="660" />
              <mxPoint x="620" y="660" />
            </Array>
          </mxGeometry>
        </mxCell>
        <mxCell id="a1ymU0LrkVuFRjIakqDR-7" value="" style="endArrow=classic;html=1;rounded=0;entryX=0.25;entryY=1;entryDx=0;entryDy=0;exitX=0.91;exitY=0.791;exitDx=0;exitDy=0;exitPerimeter=0;" edge="1" parent="1" source="9xch-vxLECyQSL4lX-pL-11" target="9xch-vxLECyQSL4lX-pL-99">
          <mxGeometry width="50" height="50" relative="1" as="geometry">
            <mxPoint x="400" y="800" as="sourcePoint" />
            <mxPoint x="430" y="799.1700000000001" as="targetPoint" />
            <Array as="points">
              <mxPoint x="400" y="810" />
              <mxPoint x="660" y="810" />
              <mxPoint x="660" y="680" />
              <mxPoint x="580" y="680" />
            </Array>
          </mxGeometry>
        </mxCell>
        <mxCell id="a1ymU0LrkVuFRjIakqDR-8" value="&lt;font size=&quot;1&quot;&gt;Skill Detail&lt;/font&gt;" style="text;html=1;align=center;verticalAlign=middle;resizable=0;points=[];autosize=1;strokeColor=none;fillColor=none;" vertex="1" parent="1">
          <mxGeometry x="580" y="660" width="70" height="30" as="geometry" />
        </mxCell>
        <mxCell id="a1ymU0LrkVuFRjIakqDR-11" value="&lt;font size=&quot;1&quot;&gt;Inventory Detail&lt;/font&gt;" style="text;html=1;align=center;verticalAlign=middle;resizable=0;points=[];autosize=1;strokeColor=none;fillColor=none;rotation=90;" vertex="1" parent="1">
          <mxGeometry x="643" y="719" width="90" height="30" as="geometry" />
        </mxCell>
        <mxCell id="a1ymU0LrkVuFRjIakqDR-12" value="&lt;font style=&quot;font-size: 9px;&quot;&gt;Input Details&lt;/font&gt;" style="text;html=1;align=center;verticalAlign=middle;resizable=0;points=[];autosize=1;strokeColor=none;fillColor=none;rotation=-90;" vertex="1" parent="1">
          <mxGeometry x="820" y="50" width="70" height="30" as="geometry" />
        </mxCell>
        <mxCell id="a1ymU0LrkVuFRjIakqDR-13" value="&lt;font size=&quot;1&quot;&gt;Inventory Detail&lt;/font&gt;" style="text;html=1;align=center;verticalAlign=middle;resizable=0;points=[];autosize=1;strokeColor=none;fillColor=none;rotation=-90;" vertex="1" parent="1">
          <mxGeometry x="788" y="48" width="90" height="30" as="geometry" />
        </mxCell>
      </root>
    </mxGraphModel>
  </diagram>
</mxfile>
